<svg xmlns="http://www.w3.org/2000/svg" xmlns:xlink="http://www.w3.org/1999/xlink" width="1024" zoomAndPan="magnify" viewBox="0 0 768 305.999988" height="408" preserveAspectRatio="xMidYMid meet" version="1.0"><defs><g/></defs><g fill="#ffffff" fill-opacity="1"><g transform="translate(0.585953, 243.773606)"><g><path d="M 19.609375 0 L 19.609375 -180.890625 L 55.796875 -180.890625 L 55.796875 -102.671875 L 129.671875 -102.671875 L 129.671875 -180.890625 L 165.59375 -180.890625 L 165.59375 0 L 129.671875 0 L 129.671875 -70.828125 L 55.796875 -70.828125 L 55.796875 0 Z M 19.609375 0 "/></g></g></g><g fill="#ffffff" fill-opacity="1"><g transform="translate(185.79615, 243.773606)"><g><path d="M 68.78125 2.296875 C 51.457031 2.296875 37.234375 -3.644531 26.109375 -15.53125 C 14.984375 -27.425781 9.421875 -42.882812 9.421875 -61.90625 C 9.421875 -80.59375 14.984375 -96.003906 26.109375 -108.140625 C 37.234375 -120.285156 51.203125 -126.359375 68.015625 -126.359375 C 83.472656 -126.359375 95.703125 -120.925781 104.703125 -110.0625 L 105.21875 -110.3125 L 105.21875 -124.578125 L 138.59375 -124.578125 L 138.59375 0 L 106.75 0 L 106.75 -14.78125 L 106.234375 -15.03125 C 97.234375 -3.476562 84.75 2.296875 68.78125 2.296875 Z M 75.15625 -27.765625 C 83.988281 -27.765625 91.460938 -30.90625 97.578125 -37.1875 C 103.691406 -43.476562 106.75 -51.632812 106.75 -61.65625 C 106.75 -71.675781 103.734375 -80 97.703125 -86.625 C 91.671875 -93.25 84.15625 -96.5625 75.15625 -96.5625 C 65.988281 -96.5625 58.390625 -93.375 52.359375 -87 C 46.328125 -80.632812 43.3125 -72.1875 43.3125 -61.65625 C 43.3125 -51.632812 46.28125 -43.476562 52.21875 -37.1875 C 58.164062 -30.90625 65.8125 -27.765625 75.15625 -27.765625 Z M 75.15625 -27.765625 "/></g></g></g><g fill="#ffffff" fill-opacity="1"><g transform="translate(339.670893, 243.773606)"><g><path d="M 16.5625 0 L 16.5625 -124.578125 L 49.9375 -124.578125 L 49.9375 -106.484375 L 50.4375 -106.484375 C 60.289062 -119.734375 72.773438 -126.359375 87.890625 -126.359375 L 90.4375 -126.359375 L 90.4375 -89.9375 C 88.0625 -90.101562 85.09375 -90.1875 81.53125 -90.1875 C 71.507812 -90.1875 63.738281 -87.171875 58.21875 -81.140625 C 52.695312 -75.109375 49.9375 -67.253906 49.9375 -57.578125 L 49.9375 0 Z M 16.5625 0 "/></g></g></g><g fill="#ffffff" fill-opacity="1"><g transform="translate(434.441423, 243.773606)"><g><path d="M 56.8125 2.296875 C 37.28125 2.296875 20.46875 -3.816406 6.375 -16.046875 L 22.421875 -39.234375 C 32.773438 -29.722656 44.320312 -24.96875 57.0625 -24.96875 C 61.820312 -24.96875 65.515625 -25.898438 68.140625 -27.765625 C 70.773438 -29.640625 72.09375 -32.101562 72.09375 -35.15625 C 72.09375 -37.707031 70.519531 -39.875 67.375 -41.65625 C 64.238281 -43.4375 58.335938 -45.769531 49.671875 -48.65625 C 37.453125 -52.738281 27.984375 -57.789062 21.265625 -63.8125 C 14.554688 -69.84375 11.203125 -78.378906 11.203125 -89.421875 C 11.203125 -100.460938 15.445312 -109.378906 23.9375 -116.171875 C 32.4375 -122.960938 43.222656 -126.359375 56.296875 -126.359375 C 73.117188 -126.359375 88.238281 -121.179688 101.65625 -110.828125 L 85.34375 -86.109375 C 76.34375 -94.941406 66.40625 -99.359375 55.53125 -99.359375 C 52.476562 -99.359375 49.757812 -98.59375 47.375 -97.0625 C 45 -95.53125 43.8125 -93.238281 43.8125 -90.1875 C 43.8125 -85.9375 49.925781 -81.519531 62.15625 -76.9375 C 68.957031 -74.394531 73.96875 -72.484375 77.1875 -71.203125 C 80.414062 -69.929688 84.238281 -68.0625 88.65625 -65.59375 C 93.070312 -63.132812 96.171875 -60.71875 97.953125 -58.34375 C 99.734375 -55.96875 101.347656 -52.953125 102.796875 -49.296875 C 104.242188 -45.640625 104.96875 -41.351562 104.96875 -36.4375 C 104.96875 -24.882812 100.847656 -15.539062 92.609375 -8.40625 C 84.367188 -1.269531 72.4375 2.296875 56.8125 2.296875 Z M 56.8125 2.296875 "/></g></g></g><g fill="#ffffff" fill-opacity="1"><g transform="translate(547.809426, 243.773606)"><g><path d="M 16.5625 0 L 16.5625 -187.5 L 49.9375 -187.5 L 49.9375 -109.546875 L 50.1875 -109.546875 C 60.375 -120.753906 73.960938 -126.359375 90.953125 -126.359375 C 121.347656 -126.359375 136.546875 -109.117188 136.546875 -74.640625 L 136.546875 0 L 103.1875 0 L 103.1875 -66.234375 C 103.1875 -77.273438 101.1875 -85.085938 97.1875 -89.671875 C 93.195312 -94.265625 87.128906 -96.5625 78.984375 -96.5625 C 69.804688 -96.5625 62.671875 -93.710938 57.578125 -88.015625 C 52.484375 -82.328125 49.9375 -73.960938 49.9375 -62.921875 L 49.9375 0 Z M 16.5625 0 "/></g></g></g><g fill="#ffffff" fill-opacity="1"><g transform="translate(698.881816, 243.773606)"><g><path d="M 34.390625 2.296875 C 28.441406 2.296875 23.429688 0.300781 19.359375 -3.6875 C 15.285156 -7.6875 13.25 -12.570312 13.25 -18.34375 C 13.25 -23.945312 15.328125 -28.742188 19.484375 -32.734375 C 23.648438 -36.722656 28.617188 -38.71875 34.390625 -38.71875 C 39.992188 -38.71875 44.832031 -36.722656 48.90625 -32.734375 C 52.988281 -28.742188 55.03125 -23.945312 55.03125 -18.34375 C 55.03125 -12.570312 52.988281 -7.6875 48.90625 -3.6875 C 44.832031 0.300781 39.992188 2.296875 34.390625 2.296875 Z M 34.390625 2.296875 "/></g></g></g></svg>