<?xml version="1.0" standalone="no"?>
<!DOCTYPE svg PUBLIC "-//W3C//DTD SVG 20010904//EN"
 "http://www.w3.org/TR/2001/REC-SVG-20010904/DTD/svg10.dtd">
<svg version="1.0" xmlns="http://www.w3.org/2000/svg"
 width="1024.000000pt" height="408.000000pt" viewBox="0 0 1024.000000 408.000000"
 preserveAspectRatio="xMidYMid meet">

<g transform="translate(0.000000,408.000000) scale(0.100000,-0.100000)"
fill="#000000" stroke="none">
<path d="M7520 2080 l0 -1250 225 0 225 0 0 458 c0 494 4 542 54 640 69 137
230 209 403 182 103 -17 168 -61 207 -143 41 -85 46 -152 46 -659 l0 -478 221
0 220 0 -3 603 c-4 593 -4 603 -27 677 -63 208 -181 328 -374 380 -72 20 -99
22 -227 17 -112 -3 -161 -9 -215 -27 -93 -29 -182 -79 -249 -141 l-56 -51 0
521 0 521 -225 0 -225 0 0 -1250z"/>
<path d="M270 2035 l0 -1205 240 0 240 0 0 470 0 470 495 0 495 0 0 -470 0
-470 240 0 240 0 0 1205 0 1205 -240 0 -240 0 0 -520 0 -520 -495 0 -495 0 0
520 0 520 -240 0 -240 0 0 -1205z"/>
<path d="M5638 2510 c-152 -18 -257 -71 -369 -187 -39 -40 -73 -73 -75 -73 -2
0 -4 54 -4 120 l0 120 -220 0 -220 0 0 -830 0 -830 219 0 219 0 5 428 c4 454
6 473 57 571 35 69 116 144 185 171 47 18 86 24 178 28 l117 4 0 244 c0 189
-3 244 -12 243 -7 -1 -43 -5 -80 -9z"/>
<path d="M3240 2503 c-58 -9 -186 -57 -243 -91 -77 -44 -221 -188 -266 -264
-150 -257 -169 -626 -45 -896 130 -284 394 -452 707 -452 177 1 324 56 438
167 l69 66 0 -101 0 -102 210 0 210 0 0 830 0 830 -220 0 -220 0 0 -96 0 -96
-62 57 c-70 63 -192 127 -276 144 -50 10 -247 13 -302 4z m405 -422 c149 -69
238 -210 252 -396 20 -275 -169 -486 -436 -485 -185 1 -345 135 -391 328 -19
81 -15 216 9 292 47 150 164 259 313 290 73 15 185 3 253 -29z"/>
<path d="M6342 2490 c-279 -75 -434 -289 -394 -547 36 -226 160 -337 534 -474
242 -89 275 -113 265 -193 -11 -81 -110 -125 -249 -111 -127 12 -243 59 -350
142 l-57 43 -44 -62 c-24 -35 -72 -103 -106 -153 l-62 -90 34 -30 c64 -55 196
-127 294 -161 235 -80 535 -69 724 27 80 40 177 136 211 209 90 193 52 435
-86 557 -55 49 -192 117 -356 179 -158 59 -230 95 -280 140 -51 46 -55 96 -12
139 37 38 61 45 146 45 111 0 218 -42 321 -126 31 -25 58 -44 59 -42 1 2 50
76 108 165 l107 161 -62 42 c-84 56 -189 105 -283 131 -116 32 -359 37 -462 9z"/>
<path d="M9715 1339 c-219 -50 -291 -329 -123 -474 55 -47 124 -68 201 -63
107 7 188 65 235 166 45 100 19 226 -65 304 -63 59 -164 87 -248 67z"/>
</g>
</svg>
