<?xml version="1.0" encoding="UTF-8"?>
<!DOCTYPE svg PUBLIC "-//W3C//DTD SVG 1.1//EN" "http://www.w3.org/Graphics/SVG/1.1/DTD/svg11.dtd">
<svg xmlns="http://www.w3.org/2000/svg" version="1.1" width="1080px" height="188px" style="shape-rendering:geometricPrecision; text-rendering:geometricPrecision; image-rendering:optimizeQuality; fill-rule:evenodd; clip-rule:evenodd" xmlns:xlink="http://www.w3.org/1999/xlink">
<g><path style="opacity:0.894" fill="#fefffe" d="M 391.5,14.5 C 394.452,15.3589 396.285,17.3589 397,20.5C 408.833,48.6667 420.667,76.8333 432.5,105C 432.241,106.261 431.574,107.261 430.5,108C 426.5,108.667 422.5,108.667 418.5,108C 413.762,98.8001 409.596,89.3001 406,79.5C 405.313,77.4453 404.146,75.7786 402.5,74.5C 396.26,75.7037 390.76,78.3704 386,82.5C 381.554,89.0583 377.887,96.0583 375,103.5C 369.623,110.439 363.957,110.772 358,104.5C 356.543,100.259 356.209,95.9255 357,91.5C 364.191,63.7935 375.691,38.1268 391.5,14.5 Z M 385.5,35.5 C 386.75,35.5774 387.583,36.244 388,37.5C 392.672,48.0226 396.838,58.6893 400.5,69.5C 391.195,70.6237 383.695,74.957 378,82.5C 374.621,88.6273 371.621,94.9606 369,101.5C 366.733,102.935 364.733,102.602 363,100.5C 362.651,92.5749 363.984,84.9082 367,77.5C 372.881,63.3512 379.048,49.3512 385.5,35.5 Z"/></g>
<g><path style="opacity:0.938" fill="#fefffe" d="M 438.5,14.5 C 450.869,14.2155 463.202,14.7155 475.5,16C 495.17,19.8456 501.336,31.0122 494,49.5C 491.079,53.0916 487.579,55.9249 483.5,58C 487.7,60.5673 490.867,64.0673 493,68.5C 497.41,78.3196 502.077,87.9863 507,97.5C 509.869,100.268 513.202,102.268 517,103.5C 517.711,105.367 517.211,106.867 515.5,108C 502.013,109.509 492.18,104.342 486,92.5C 483.878,83.0934 481.545,73.7601 479,64.5C 477.786,62.9512 476.286,61.7845 474.5,61C 464.747,61.3205 457.247,57.4872 452,49.5C 451.667,68.8333 451.333,88.1667 451,107.5C 446.667,108.833 442.333,108.833 438,107.5C 437.175,76.4283 437.342,45.4283 438.5,14.5 Z M 451.5,20.5 C 457.888,20.3119 464.222,20.8119 470.5,22C 481.901,26.486 485.401,34.6527 481,46.5C 473.8,56.5893 466.133,56.9227 458,47.5C 453.303,39.1343 451.136,30.1343 451.5,20.5 Z"/></g>
<g><path style="opacity:0.931" fill="#fefffe" d="M 501.5,14.5 C 524.836,14.3334 548.169,14.5 571.5,15C 572,15.5 572.5,16 573,16.5C 573.667,20.5 573.667,24.5 573,28.5C 572.439,29.0219 571.772,29.3552 571,29.5C 562.913,23.35 553.746,20.35 543.5,20.5C 543.667,49.5019 543.5,78.5019 543,107.5C 539.256,108.626 535.423,108.793 531.5,108C 531,107.5 530.5,107 530,106.5C 529.5,77.8353 529.333,49.1686 529.5,20.5C 519.254,20.35 510.087,23.35 502,29.5C 501.228,29.3552 500.561,29.0219 500,28.5C 498.966,23.5431 499.466,18.8764 501.5,14.5 Z"/></g>
<g><path style="opacity:0.938" fill="#fefffe" d="M 579.5,14.5 C 596.837,14.3334 614.17,14.5001 631.5,15C 632,15.5 632.5,16 633,16.5C 633.667,20.5 633.667,24.5 633,28.5C 632.275,29.0585 631.442,29.3918 630.5,29.5C 626.316,26.2392 621.649,23.7392 616.5,22C 608.536,20.9024 600.536,20.4024 592.5,20.5C 592.334,28.1739 592.5,35.8406 593,43.5C 593.541,49.1003 596.374,52.9336 601.5,55C 606.769,56.1062 612.103,56.7728 617.5,57C 618.632,61.4132 618.799,65.9132 618,70.5C 616.951,71.5171 615.784,71.6838 614.5,71C 607.114,66.8879 599.947,62.3879 593,57.5C 592.667,73.8333 592.333,90.1667 592,106.5C 591.5,107 591,107.5 590.5,108C 586.833,108.667 583.167,108.667 579.5,108C 578.17,76.8333 578.17,45.6667 579.5,14.5 Z"/></g>
<g><path style="opacity:0.92" fill="#fefffe" d="M 639.5,14.5 C 643.767,14.203 647.934,14.5363 652,15.5C 652.5,44.4981 652.667,73.4981 652.5,102.5C 661.235,102.876 669.902,102.376 678.5,101C 681.902,99.6001 684.736,97.4335 687,94.5C 688.497,90.8351 690.497,87.5017 693,84.5C 694.859,85.6455 695.693,87.3122 695.5,89.5C 694.763,95.8597 693.429,102.026 691.5,108C 674.167,108.667 656.833,108.667 639.5,108C 639,107.5 638.5,107 638,106.5C 637.333,76.5 637.333,46.5 638,16.5C 638.717,15.9558 639.217,15.2891 639.5,14.5 Z"/></g>
<g><path style="opacity:0.89" fill="#fefffe" d="M 734.5,14.5 C 736.39,14.2965 737.89,14.9632 739,16.5C 751.058,45.6157 763.391,74.6157 776,103.5C 776.711,105.367 776.211,106.867 774.5,108C 770.5,108.667 766.5,108.667 762.5,108C 762,107.5 761.5,107 761,106.5C 756.433,95.6004 751.6,84.9337 746.5,74.5C 739.242,75.8781 733.075,79.2114 728,84.5C 724.139,90.8878 720.806,97.5545 718,104.5C 711.527,111.448 705.86,110.781 701,102.5C 700.209,92.1166 701.876,82.1166 706,72.5C 713.7,52.2054 723.2,32.8721 734.5,14.5 Z M 729.5,35.5 C 731.136,36.7489 732.303,38.4156 733,40.5C 737.333,50.004 741.166,59.6706 744.5,69.5C 734.43,70.4502 726.597,75.1168 721,83.5C 718.06,89.0459 715.394,94.7126 713,100.5C 710.916,103.033 708.916,103.033 707,100.5C 706.223,93.2676 707.223,86.2676 710,79.5C 715.688,64.4586 722.188,49.7919 729.5,35.5 Z"/></g>
<g><path style="opacity:0.912" fill="#fefffe" d="M 782.5,14.5 C 794.869,14.2155 807.202,14.7155 819.5,16C 839.068,19.8789 845.235,31.0456 838,49.5C 835.079,53.0916 831.579,55.9249 827.5,58C 831.693,61.531 835.193,65.6977 838,70.5C 841.453,79.4062 845.453,88.0729 850,96.5C 852.746,100.302 856.413,102.635 861,103.5C 861.711,105.367 861.211,106.867 859.5,108C 846.493,109.413 836.66,104.58 830,93.5C 827.595,85.9957 825.928,78.329 825,70.5C 824.177,66.3359 822.01,63.1692 818.5,61C 809.101,61.3818 801.601,57.8818 796,50.5C 795.667,69.1667 795.333,87.8333 795,106.5C 793.004,108.059 790.671,108.726 788,108.5C 785.329,108.726 782.996,108.059 781,106.5C 780.333,76.5 780.333,46.5 781,16.5C 781.717,15.9558 782.217,15.2891 782.5,14.5 Z M 795.5,20.5 C 803.767,20.0381 811.767,21.2048 819.5,24C 828.471,32.9575 828.805,42.2908 820.5,52C 812.637,55.5728 806.137,53.7394 801,46.5C 796.804,38.3548 794.971,29.6882 795.5,20.5 Z"/></g>
<g><path style="opacity:0.9" fill="#fefffe" d="M 867.5,14.5 C 884.837,14.3334 902.17,14.5001 919.5,15C 920,15.5 920.5,16 921,16.5C 921.667,20.5 921.667,24.5 921,28.5C 920.275,29.0585 919.442,29.3918 918.5,29.5C 914.084,25.9587 909.084,23.4587 903.5,22C 895.875,20.8583 888.208,20.3583 880.5,20.5C 880.334,28.84 880.5,37.1733 881,45.5C 882.068,50.2353 884.901,53.4019 889.5,55C 894.437,56.0855 899.437,56.7521 904.5,57C 906.059,58.9958 906.726,61.3291 906.5,64C 907.008,67.2276 906.008,69.7276 903.5,71.5C 895.748,67.209 888.248,62.5423 881,57.5C 880.5,72.4963 880.333,87.4963 880.5,102.5C 889.235,102.876 897.902,102.376 906.5,101C 909.562,99.9392 912.062,98.1059 914,95.5C 915.584,91.3253 917.918,87.6587 921,84.5C 922.236,85.3992 923.07,86.5659 923.5,88C 922.574,92.8107 921.741,97.6441 921,102.5C 920.837,104.676 920.004,106.509 918.5,108C 901.5,108.667 884.5,108.667 867.5,108C 867,107.5 866.5,107 866,106.5C 865.333,76.5 865.333,46.5 866,16.5C 866.717,15.9558 867.217,15.2891 867.5,14.5 Z"/></g>
<g><path style="opacity:0.955" fill="#fefffe" d="M 112.5,58.5 C 151.167,58.5 189.833,58.5 228.5,58.5C 228.961,71.2665 228.461,83.9332 227,96.5C 201.833,122.333 176.667,148.167 151.5,174C 143.167,174.667 134.833,174.667 126.5,174C 152.061,162.716 162.228,143.216 157,115.5C 149.67,94.3412 134.837,82.6746 112.5,80.5C 112.5,73.1667 112.5,65.8333 112.5,58.5 Z"/></g>
<g><path style="opacity:0.977" fill="#fefffe" d="M 254.5,71.5 C 257.263,71.7438 259.429,73.0771 261,75.5C 292.349,108.015 323.516,140.682 354.5,173.5C 289.169,174.667 223.836,174.833 158.5,174C 190.705,139.964 222.705,105.797 254.5,71.5 Z"/></g>
<g><path style="opacity:0.974" fill="#fefffe" d="M 96.5,84.5 C 124.476,81.222 142.643,92.8887 151,119.5C 154.765,147.494 143.265,165.661 116.5,174C 88.506,177.765 70.3393,166.265 62,139.5C 58.3563,111.42 69.8563,93.0866 96.5,84.5 Z"/></g>
<g><path style="opacity:0.699" fill="#fefffe" d="M 700.5,154.5 C 706.468,153.459 709.801,155.792 710.5,161.5C 707.892,161.394 705.892,160.228 704.5,158C 701.086,157.243 700.086,158.41 701.5,161.5C 706.319,161.895 709.653,164.228 711.5,168.5C 708.766,174.419 704.433,175.919 698.5,173C 695.038,170.431 695.038,168.264 698.5,166.5C 698.994,169.33 700.661,170.663 703.5,170.5C 705.319,170.658 706.652,169.991 707.5,168.5C 704.012,166.602 700.512,164.602 697,162.5C 695.78,158.707 696.947,156.04 700.5,154.5 Z"/></g>
<g><path style="opacity:0.7" fill="#fefffe" d="M 779.5,154.5 C 782.649,154.211 785.649,154.711 788.5,156C 790.155,157.444 790.822,159.278 790.5,161.5C 788.184,160.064 785.684,158.731 783,157.5C 777.773,159.349 776.106,163.015 778,168.5C 780.604,171.165 783.437,171.665 786.5,170C 787.337,168.989 787.67,167.822 787.5,166.5C 785.833,166.5 784.167,166.5 782.5,166.5C 782.5,165.5 782.5,164.5 782.5,163.5C 785.5,163.5 788.5,163.5 791.5,163.5C 791.777,166.448 791.444,169.281 790.5,172C 777.259,176.759 772.093,172.259 775,158.5C 776.397,156.93 777.897,155.596 779.5,154.5 Z"/></g>
<g><path style="opacity:0.773" fill="#fefffe" d="M 372.5,155.5 C 373.5,155.5 374.5,155.5 375.5,155.5C 375.334,159.846 375.501,164.179 376,168.5C 378.191,171.482 380.524,171.815 383,169.5C 384.225,164.915 384.725,160.248 384.5,155.5C 385.5,155.5 386.5,155.5 387.5,155.5C 387.666,160.179 387.499,164.845 387,169.5C 384.017,174.568 379.851,175.735 374.5,173C 373.874,172.25 373.374,171.416 373,170.5C 372.501,165.511 372.334,160.511 372.5,155.5 Z"/></g>
<g><path style="opacity:0.688" fill="#fefffe" d="M 417.5,155.5 C 418.833,155.5 420.167,155.5 421.5,155.5C 421.5,161.5 421.5,167.5 421.5,173.5C 420.167,173.5 418.833,173.5 417.5,173.5C 417.5,167.5 417.5,161.5 417.5,155.5 Z"/></g>
<g><path style="opacity:0.755" fill="#fefffe" d="M 485.5,155.5 C 486.5,155.5 487.5,155.5 488.5,155.5C 488.334,159.846 488.501,164.179 489,168.5C 491.191,171.482 493.524,171.815 496,169.5C 496.499,164.845 496.666,160.179 496.5,155.5C 497.833,155.5 499.167,155.5 500.5,155.5C 500.666,160.179 500.499,164.845 500,169.5C 497.017,174.568 492.851,175.735 487.5,173C 486.874,172.25 486.374,171.416 486,170.5C 485.501,165.511 485.334,160.511 485.5,155.5 Z"/></g>
<g><path style="opacity:0.74" fill="#fefffe" d="M 529.5,155.5 C 530.873,155.343 532.207,155.51 533.5,156C 534.726,157.635 536.059,159.135 537.5,160.5C 539.164,156.964 541.831,155.464 545.5,156C 543.5,158.667 541.5,161.333 539.5,164C 541.694,166.695 543.694,169.528 545.5,172.5C 544.277,173.614 542.944,173.781 541.5,173C 540.12,171.075 538.62,169.241 537,167.5C 535.379,171.491 532.546,173.324 528.5,173C 530.907,170.262 532.907,167.262 534.5,164C 532.943,161.045 531.276,158.212 529.5,155.5 Z"/></g>
<g><path style="opacity:0.73" fill="#fefffe" d="M 607.5,155.5 C 622.162,152.683 626.829,158.183 621.5,172C 616.964,173.379 612.297,173.879 607.5,173.5C 607.5,167.5 607.5,161.5 607.5,155.5 Z M 611.5,158.5 C 616.658,157.331 619.658,159.331 620.5,164.5C 619.658,169.669 616.658,171.669 611.5,170.5C 611.5,166.5 611.5,162.5 611.5,158.5 Z"/></g>
<g><path style="opacity:0.73" fill="#fefffe" d="M 652.5,155.5 C 657.167,155.5 661.833,155.5 666.5,155.5C 666.5,156.5 666.5,157.5 666.5,158.5C 663.167,158.5 659.833,158.5 656.5,158.5C 656.5,159.833 656.5,161.167 656.5,162.5C 659.833,162.5 663.167,162.5 666.5,162.5C 666.5,163.5 666.5,164.5 666.5,165.5C 663.167,165.5 659.833,165.5 656.5,165.5C 656.5,167.167 656.5,168.833 656.5,170.5C 660.167,170.5 663.833,170.5 667.5,170.5C 667.5,171.5 667.5,172.5 667.5,173.5C 662.5,173.5 657.5,173.5 652.5,173.5C 652.5,167.5 652.5,161.5 652.5,155.5 Z"/></g>
<g><path style="opacity:0.688" fill="#fefffe" d="M 740.5,155.5 C 741.833,155.5 743.167,155.5 744.5,155.5C 744.5,161.5 744.5,167.5 744.5,173.5C 743.167,173.5 741.833,173.5 740.5,173.5C 740.5,167.5 740.5,161.5 740.5,155.5 Z"/></g>
<g><path style="opacity:0.834" fill="#fefffe" d="M 820.5,155.5 C 821.873,155.343 823.207,155.51 824.5,156C 827.123,159.412 829.623,162.912 832,166.5C 832.499,162.848 832.665,159.182 832.5,155.5C 833.5,155.5 834.5,155.5 835.5,155.5C 835.5,161.5 835.5,167.5 835.5,173.5C 834.022,173.762 832.689,173.429 831.5,172.5C 829,168.833 826.5,165.167 824,161.5C 823.501,165.486 823.334,169.486 823.5,173.5C 822.5,173.5 821.5,173.5 820.5,173.5C 820.5,167.5 820.5,161.5 820.5,155.5 Z"/></g>
<g><path style="opacity:0.703" fill="#fefffe" d="M 865.5,155.5 C 870.167,155.5 874.833,155.5 879.5,155.5C 879.5,156.5 879.5,157.5 879.5,158.5C 876.167,158.5 872.833,158.5 869.5,158.5C 869.5,159.833 869.5,161.167 869.5,162.5C 872.833,162.5 876.167,162.5 879.5,162.5C 879.5,163.5 879.5,164.5 879.5,165.5C 876.167,165.5 872.833,165.5 869.5,165.5C 869.5,167.167 869.5,168.833 869.5,170.5C 873.167,170.5 876.833,170.5 880.5,170.5C 880.5,171.5 880.5,172.5 880.5,173.5C 875.5,173.5 870.5,173.5 865.5,173.5C 865.5,167.5 865.5,161.5 865.5,155.5 Z"/></g>
<g><path style="opacity:0.81" fill="#fefffe" d="M 909.5,155.5 C 913.846,155.334 918.179,155.501 922.5,156C 925.343,159.619 925.01,162.952 921.5,166C 923.167,168.333 924.833,170.667 926.5,173C 924.741,173.798 923.074,173.631 921.5,172.5C 919.933,168.261 916.933,165.928 912.5,165.5C 912.5,168.167 912.5,170.833 912.5,173.5C 911.5,173.5 910.5,173.5 909.5,173.5C 909.5,167.5 909.5,161.5 909.5,155.5 Z M 912.5,157.5 C 914.92,157.292 917.253,157.626 919.5,158.5C 920.429,159.689 920.762,161.022 920.5,162.5C 917.833,162.5 915.167,162.5 912.5,162.5C 912.5,160.833 912.5,159.167 912.5,157.5 Z"/></g>
</svg>
